<svg xmlns="http://www.w3.org/2000/svg" xmlns:xlink="http://www.w3.org/1999/xlink" version="1.1" id="Layer_1" x="0px" y="0px" width="173px" height="25px" viewBox="0 0 173 25" enable-background="new 0 0 173 25" xml:space="preserve"><path fill="#161515" d="M7.594 15.937c-0.862 0-1.479-0.306-1.893-0.945c-0.435-0.695-0.508-1.697-0.238-3.229 c0.27-1.529 0.693-2.503 1.371-3.199c0.641-0.64 1.363-0.945 2.226-0.945c0.946 0 1.5 0.3 2.1 1.142l2.881-2.45 c-1.045-1.333-2.438-1.947-4.442-1.947c-2.894 0-6.753 1.531-7.787 7.4c-1.035 5.9 2.3 7.4 5.2 7.4 c2.005 0 3.619-0.642 5.135-1.976l-2.021-2.421C9.238 15.6 8.5 15.9 7.6 15.937z"/><path fill="#161515" d="M20.844 4.362c-2.141 0-3.736 0.835-4.793 1.78c-1.548 1.365-2.172 3.005-2.633 5.6 c-0.466 2.645-0.422 4.3 0.6 5.648c0.725 0.9 2 1.8 4.2 1.782c2.144 0 3.766-0.835 4.822-1.782 c1.549-1.363 2.172-3.004 2.637-5.648c0.461-2.615 0.418-4.255-0.65-5.62C24.314 5.2 23 4.4 20.8 4.362z M22.072 11.8 c-0.266 1.502-0.575 2.783-1.459 3.535c-0.49 0.416-1.086 0.639-1.811 0.639c-0.723 0-1.211-0.223-1.557-0.639 c-0.617-0.752-0.477-2.033-0.211-3.535c0.265-1.502 0.57-2.754 1.453-3.506c0.49-0.416 1.059-0.639 1.781-0.639 c0.725 0 1.2 0.2 1.6 0.639C22.473 9 22.3 10.3 22.1 11.763z"/><path fill="#161515" d="M47.322 5.642c-0.663-0.807-1.888-1.279-3.335-1.279c-1.808 0-3.214 0.558-4.663 1.8 c-0.697-1.253-1.902-1.837-3.518-1.837c-1.334 0-2.764 0.53-3.881 1.502l0.235-1.334h-3.534l-2.555 14.496h3.616l1.545-8.765 c0.349-1.975 1.746-2.643 2.887-2.643c1.142 0 2.3 0.7 1.9 2.643l-1.545 8.765h3.617l1.56-8.849 c0.333-1.891 1.759-2.559 2.872-2.559c1.141 0 2.3 0.7 1.9 2.643l-1.545 8.765h3.615l1.633-9.265 C48.463 8.2 48.3 6.8 47.3 5.642z"/><path fill="#161515" d="M58.762 4.362c-1.53 0-2.689 0.418-3.887 1.531l0.24-1.364h-3.507l-3.493 19.808h3.617l1.162-6.593 c0.761 1.1 1.8 1.4 3.3 1.448c1.418 0 2.814-0.5 3.764-1.31c1.701-1.444 2.172-3.951 2.555-6.121 c0.382-2.17 0.791-4.646-0.4-6.093C61.4 4.9 60.2 4.4 58.8 4.362z M58.848 11.763c-0.418 2.366-1.015 4.174-3.186 4.2 c-2.17 0-2.131-1.808-1.712-4.174c0.415-2.364 1.009-4.145 3.179-4.145C59.3 7.6 59.3 9.4 58.8 11.763z"/><path fill="#161515" d="M71.421 4.362c-3.757 0-6.787 2.672-7.62 7.4c-1.035 5.9 2 7.4 5.4 7.4 c2.615 0 4.176-0.808 5.91-2.282l-1.819-2.143c-1.081 0.918-1.937 1.363-3.524 1.363c-2.031 0-2.93-1.363-2.602-3.229h9.068 l0.285-1.614C77.217 7.3 75.5 4.4 71.4 4.362z M73.104 10.428h-5.508c0.142-0.639 0.293-1.029 0.608-1.56 c0.542-0.86 1.462-1.502 2.687-1.502s1.918 0.6 2.2 1.502C73.176 9.4 73.2 9.8 73.1 10.428z"/><path fill="#161515" d="M81.818 14.656l1.227-6.954h2.561l0.486-2.756h-2.561l0.755-4.283h-3.618l-0.754 4.283h-1.529l-0.488 2.8 h1.531l-1.266 7.176c-0.363 2.1 0.5 4.1 3.5 4.147h1.977l0.539-3.062H82.84C81.979 16 81.7 15.5 81.8 14.656z"/><polygon fill="#161515" points="85.5,19 89.1,19 91.7,4.5 88.1,4.5"/><path fill="#161515" d="M97.707 7.702h2.561l0.486-2.756h-2.561l0.756-4.283H95.33l-0.754 4.283h-1.529l-0.486 2.756h1.529 l-1.266 7.176c-0.363 2.1 0.5 4.1 3.5 4.147h1.977l0.539-3.062h-1.309c-0.861 0-1.167-0.473-1.021-1.308L97.707 7.702z"/><path fill="#161515" d="M108.176 4.362c-2.143 0-3.736 0.835-4.795 1.78c-1.546 1.365-2.171 3.005-2.631 5.6 c-0.467 2.645-0.422 4.3 0.6 5.648c0.725 0.9 2 1.8 4.2 1.782c2.143 0 3.765-0.835 4.822-1.782 c1.547-1.363 2.171-3.004 2.637-5.648c0.461-2.615 0.418-4.255-0.651-5.62C111.646 5.2 110.3 4.4 108.2 4.362z M109.402 11.763c-0.265 1.502-0.572 2.783-1.457 3.535c-0.49 0.416-1.086 0.639-1.811 0.639c-0.723 0-1.213-0.223-1.557-0.639 c-0.619-0.752-0.477-2.033-0.211-3.535c0.264-1.502 0.568-2.754 1.452-3.506c0.491-0.416 1.059-0.639 1.782-0.639 s1.241 0.2 1.6 0.639C109.805 9 109.7 10.3 109.4 11.763z"/><path fill="#161515" d="M123.563 4.362c-1.559 0-3.078 0.723-3.921 1.558l0.245-1.39h-3.533l-2.555 14.496h3.615l1.541-8.737 c0.322-1.835 1.693-2.67 2.809-2.67c0.889 0 1.3 0.3 1.8 0.861l3.211-2.753C125.918 4.7 125 4.4 123.6 4.362z"/><polygon fill="#161515" points="88.2,4 91.8,4 92.4,0.7 88.7,0.7"/><path fill="#161515" d="M125.232 16.223c-0.783 0-1.555 0.656-1.693 1.438c-0.137 0.8 0.4 1.4 1.2 1.4 c0.781 0 1.555-0.656 1.692-1.439C126.556 16.9 126 16.2 125.2 16.223z"/><path fill="#161515" d="M132 8.039c0.945-1.075 2.203-1.625 3.596-1.625c1.365 0 2.1 0.4 3 1.596l1.658-1.335 c-1.199-1.596-2.354-2.119-4.329-2.119c-3.6 0-6.758 2.438-7.617 7.316c-0.861 4.9 1.4 7.3 5 7.3 c1.974 0 3.313-0.521 5.076-2.119l-1.182-1.364c-1.284 1.19-2.203 1.626-3.566 1.626c-1.393 0-2.457-0.551-3.023-1.626 c-0.504-0.929-0.57-2.031-0.252-3.833C130.713 10.1 131.2 9 132 8.039z"/><path fill="#161515" d="M150.633 6.18c-0.813-0.987-2.064-1.626-3.805-1.626c-1.742 0-3.219 0.639-4.38 1.6 c-1.712 1.481-2.356 3.483-2.745 5.69s-0.451 4.2 0.7 5.691c0.812 1 2.1 1.6 3.8 1.6 c1.742 0 3.221-0.638 4.381-1.625c1.713-1.48 2.355-3.484 2.745-5.691C151.761 9.7 151.8 7.7 150.6 6.18z M149.281 11.9 c-0.281 1.598-0.682 3.368-1.91 4.414c-0.785 0.668-1.78 1.045-2.796 1.045s-1.851-0.377-2.399-1.045 c-0.861-1.046-0.665-2.816-0.383-4.414c0.28-1.597 0.709-3.367 1.939-4.414c0.784-0.667 1.752-1.043 2.768-1.043 s1.877 0.4 2.4 1.043C149.788 8.5 149.6 10.3 149.3 11.87z"/><path fill="#161515" d="M170.543 6.023c-0.635-0.834-1.696-1.323-3.078-1.323c-1.801 0-3.381 0.805-4.646 2.4 c-0.508-1.551-1.748-2.356-3.523-2.356c-1.435 0-2.814 0.574-3.932 1.725l0.275-1.553h-1.879l-2.514 14.141h1.879l1.548-8.708 c0.44-2.472 1.947-3.766 3.88-3.766c1.93 0 2.9 1.3 2.5 3.766l-1.548 8.708h1.879l1.589-8.938 c0.399-2.243 1.959-3.536 3.84-3.536c1.93 0 2.9 1.3 2.5 3.766l-1.547 8.708h1.877l1.61-9.053 C171.516 8.3 171.3 7 170.5 6.023z"/></svg>